<?xml version="1.0" encoding="iso-8859-1"?>
<!-- Generator: Adobe Illustrator 18.1.1, SVG Export Plug-In . SVG Version: 6.00 Build 0)  -->
<svg version="1.1" id="Capa_1" xmlns="http://www.w3.org/2000/svg" xmlns:xlink="http://www.w3.org/1999/xlink" x="0px" y="0px"
	 viewBox="0 0 58.638 58.638" style="enable-background:new 0 0 58.638 58.638;" xml:space="preserve">
<g>
	<path style="fill:#010002;" d="M57.512,28.193h-2.908c-0.622,0-1.126,0.505-1.126,1.125v2.438h-1.923v-9.943
		c0-0.622-0.504-1.126-1.126-1.126H20.031c-0.622,0-1.126,0.504-1.126,1.126v9.944h-4.996c2.419-0.63,4.212-2.825,4.212-5.441
		c0-3.104-2.524-5.629-5.629-5.629s-5.629,2.525-5.629,5.629c0,2.616,1.793,4.812,4.212,5.441H5.16v-17.45
		c0-0.622-0.504-1.125-1.126-1.125H1.126C0.504,13.182,0,13.685,0,14.307V44.33c0,0.621,0.504,1.126,1.126,1.126h2.909
		c0.622,0,1.126-0.505,1.126-1.126v-4.504h48.317v4.504c0,0.621,0.504,1.126,1.126,1.126h2.908c0.621,0,1.126-0.505,1.126-1.126
		V29.318C58.638,28.698,58.133,28.193,57.512,28.193z"/>
</g>
<g>
</g>
<g>
</g>
<g>
</g>
<g>
</g>
<g>
</g>
<g>
</g>
<g>
</g>
<g>
</g>
<g>
</g>
<g>
</g>
<g>
</g>
<g>
</g>
<g>
</g>
<g>
</g>
<g>
</g>
</svg>
