<?xml version="1.0" encoding="iso-8859-1"?>
<!-- Generator: Adobe Illustrator 19.0.0, SVG Export Plug-In . SVG Version: 6.00 Build 0)  -->
<svg version="1.1" id="Layer_1" xmlns="http://www.w3.org/2000/svg" xmlns:xlink="http://www.w3.org/1999/xlink" x="0px" y="0px"
	 viewBox="0 0 436.64 436.64" style="enable-background:new 0 0 436.64 436.64;" xml:space="preserve">
<g>
	<g>
		<g>
			<path d="M76.906,274.143c-13.806,0-25.039,11.232-25.039,25.039s11.232,25.039,25.039,25.039s25.04-11.232,25.04-25.039
				S90.712,274.143,76.906,274.143z M76.906,309.221c-5.535,0-10.039-4.503-10.039-10.039s4.503-10.039,10.039-10.039
				s10.04,4.503,10.04,10.039S82.441,309.221,76.906,309.221z"/>
			<path d="M337.359,274.143c-13.807,0-25.04,11.232-25.04,25.039s11.233,25.039,25.04,25.039c13.806,0,25.039-11.232,25.039-25.039
				S351.166,274.143,337.359,274.143z M337.359,309.221c-5.536,0-10.04-4.503-10.04-10.039s4.504-10.039,10.04-10.039
				c5.535,0,10.039,4.503,10.039,10.039S342.895,309.221,337.359,309.221z"/>
			<path d="M399.72,87.203H36.93C16.567,87.203,0,103.765,0,124.123v177.84c0,4.142,3.358,7.5,7.5,7.5h20.212
				c4.758,22.796,25.007,39.974,49.195,39.974s44.436-17.178,49.194-39.974h162.064c4.758,22.796,25.006,39.974,49.194,39.974
				s44.436-17.178,49.194-39.974h42.587c4.142,0,7.5-3.358,7.5-7.5v-177.84C436.64,103.765,420.078,87.203,399.72,87.203z
				 M26.879,294.463H15v-7.89h13.254C27.591,289.13,27.132,291.767,26.879,294.463z M76.906,334.437
				c-19.44,0-35.256-15.815-35.256-35.255s15.816-35.255,35.256-35.255s35.255,15.815,35.255,35.255S96.346,334.437,76.906,334.437z
				 M337.359,334.437c-19.44,0-35.255-15.815-35.255-35.255s15.815-35.255,35.255-35.255s35.255,15.815,35.255,35.255
				S356.799,334.437,337.359,334.437z M421.64,294.463h-34.254c-0.252-2.696-0.712-5.333-1.375-7.89h35.629V294.463z
				 M421.64,243.972h-12.5c-4.142,0-7.5,3.358-7.5,7.5c0,4.142,3.358,7.5,7.5,7.5h12.5v12.6h-42.319
				c-8.998-13.629-24.443-22.645-41.962-22.645s-32.964,9.016-41.962,22.646H154.64c-4.142,0-7.5,3.358-7.5,7.5
				c0,4.142,3.358,7.5,7.5,7.5h134.067c-0.663,2.557-1.122,5.194-1.375,7.89H126.933c-2.387-25.506-23.908-45.537-50.027-45.537
				c-17.519,0-32.965,9.016-41.963,22.646H15v-147.45c0-12.087,9.838-21.92,21.93-21.92h362.79c9.453,0,17.528,6.016,20.598,14.42
				H381.1c-12.936,0-23.46,10.524-23.46,23.46v71.43c0,12.936,10.524,23.46,23.46,23.46h40.54V243.972z M421.64,219.973H381.1
				c-4.665,0-8.46-3.795-8.46-8.46v-71.43c0-4.665,3.795-8.46,8.46-8.46h40.54V219.973z"/>
			<path d="M325.18,116.623H55.51c-12.936,0-23.46,10.524-23.46,23.46v71.43c0,12.936,10.524,23.46,23.46,23.46h269.67
				c12.936,0,23.46-10.524,23.46-23.46v-71.43C348.64,127.147,338.116,116.623,325.18,116.623z M133.64,219.973H55.51
				c-4.665,0-8.46-3.795-8.46-8.46v-71.43c0-4.665,3.795-8.46,8.46-8.46h78.13V219.973z M235.64,219.973h-87v-88.35h87V219.973z
				 M333.64,211.513c0,4.665-3.795,8.46-8.46,8.46h-74.54v-88.35h74.54c4.665,0,8.46,3.795,8.46,8.46V211.513z"/>
			<path d="M139.903,272.839c-2.812-1.854-6.617-1.619-9.146,0.627c-2.28,2.024-3.098,5.329-2.051,8.187
				c1.117,3.049,4.156,5.066,7.404,4.907c3.146-0.154,5.915-2.335,6.817-5.347C143.856,278.111,142.614,274.624,139.903,272.839z"/>
			<path d="M139.999,272.902C140.027,272.921,140.02,272.916,139.999,272.902L139.999,272.902z"/>
			<path d="M139.903,272.839C139.698,272.704,139.8,272.771,139.903,272.839L139.903,272.839z"/>
			<path d="M139.903,272.839c0.04,0.026,0.075,0.049,0.096,0.063C139.981,272.891,139.952,272.871,139.903,272.839z"/>
		</g>
	</g>
</g>
<g>
</g>
<g>
</g>
<g>
</g>
<g>
</g>
<g>
</g>
<g>
</g>
<g>
</g>
<g>
</g>
<g>
</g>
<g>
</g>
<g>
</g>
<g>
</g>
<g>
</g>
<g>
</g>
<g>
</g>
</svg>
