<?xml version='1.0' encoding='iso-8859-1'?>
<!DOCTYPE svg PUBLIC '-//W3C//DTD SVG 1.1//EN' 'http://www.w3.org/Graphics/SVG/1.1/DTD/svg11.dtd'>
<svg version="1.1" xmlns="http://www.w3.org/2000/svg" viewBox="0 0 231.334 231.334" xmlns:xlink="http://www.w3.org/1999/xlink" enable-background="new 0 0 231.334 231.334">
  <g>
    <path d="m225.334,104.935c-3.313,0-6,2.687-6,6v51.199h-37.128v-24.056c0-3.313-2.687-6-6-6s-6,2.687-6,6v30.056 11.948c0,3.313 2.687,6 6,6s6-2.687 6-6v-1.459-4.488h18.456 18.672v45.2h-102.856v-55.89c0-3.313-2.687-6-6-6s-6,2.687-6,6v22.585h-41.197c-3.313,0-6,2.687-6,6s2.687,6 6,6h41.196v21.305h-92.477v-30.189c0-3.314-2.687-6-6-6s-6,2.686-6,6v36.189c0,3.313 2.687,6 6,6h219.334c3.313,0 6-2.687 6-6v-114.4c0-3.314-2.687-6-6-6z"/>
    <path d="M225.334,0H6C2.687,0,0,2.687,0,6v131.12c0,3.314,2.687,6,6,6s6-2.686,6-6v-15.453h14.156c3.313,0,6-2.687,6-6   s-2.687-6-6-6H12V62.28h37.416v27.792c0,3.313,2.687,6,6,6h21.333c3.313,0,6-2.687,6-6s-2.687-6-6-6H61.416V56.28   c0-3.313-2.687-6-6-6H12V12h69.127v25.253c0,3.313,2.687,6,6,6s6-2.687,6-6V12h56.323v7.678v19.755h-8.666h-2.631   c-3.313,0-6,2.687-6,6s2.687,6,6,6h17.297h16.432c3.313,0,6-2.687,6-6s-2.687-6-6-6H161.45V12h57.884v50.602c0,3.313,2.687,6,6,6   s6-2.687,6-6V6C231.334,2.687,228.647,0,225.334,0z"/>
    <path d="m203.85,79.453h-83.283c-3.313,0-6,2.687-6,6v36.944 2.093h-5.709-31.1c-3.313,0-6,2.687-6,6v7.602 18.108h-49.392-16.366c-3.313,0-6,2.687-6,6s2.687,6 6,6h71.758c3.313,0 6-2.687 6-6v-25.71h36.81c3.313,0 6-2.687 6-6v-12.493-26.544h72.401 4.882 6.174l-6.174,6.174-4.242,4.242c-2.344,2.343-2.344,6.142 0,8.485 1.171,1.171 2.707,1.757 4.242,1.757s3.071-0.586 4.242-1.757l18.325-18.324c1.757-1.757 2.725-4.092 2.725-6.577 0-2.484-0.968-4.82-2.725-6.577l-18.325-18.325c-2.342-2.343-6.143-2.343-8.484,0-2.344,2.343-2.344,6.142 0,8.485l4.242,4.242 6.174,6.175h-6.175z"/>
  </g>
</svg>
