<?xml version="1.0" encoding="iso-8859-1"?>
<!-- Generator: Adobe Illustrator 17.1.0, SVG Export Plug-In . SVG Version: 6.00 Build 0)  -->
<!DOCTYPE svg PUBLIC "-//W3C//DTD SVG 1.1//EN" "http://www.w3.org/Graphics/SVG/1.1/DTD/svg11.dtd">
<svg version="1.1" id="Capa_1" xmlns="http://www.w3.org/2000/svg" xmlns:xlink="http://www.w3.org/1999/xlink" x="0px" y="0px"
	 viewBox="0 0 506.291 506.291" style="enable-background:new 0 0 506.291 506.291;" xml:space="preserve">
<g>
	<path d="M368.272,192.509c28.567,0,51.808-23.242,51.808-51.811c0-28.567-23.24-51.809-51.808-51.809
		c-28.56,0-51.794,23.241-51.794,51.809C316.478,169.267,339.713,192.509,368.272,192.509z"/>
	<path d="M481.213,286.272l-17.794-24.262c-4.061-5.537-10.817-14.353-15.062-19.651L422.1,209.556
		c-3.808-4.758-7.757-8.145-15.335-8.145c-0.089,0-62.066-0.081-62.066-0.081l-40.299-27.389
		c-4.481-3.046-11.882-8.982-15.836-12.703l-4.62-4.349h8.329c1.467,0,2.771-0.607,3.576-1.668c0.806-1.06,1.042-2.479,0.65-3.892
		l-5.479-19.713c-0.737-2.653-3.473-4.731-6.227-4.731h-14.111l-3.521-21.349l18.567-12.379c4.457-2.971,8.269-8.268,10.38-13.866
		c15.156-1.346,27.081-14.105,27.081-29.605c0-20.962-5.799-29.708-19.957-29.987l3.439-13.439c0.405-1.581,0.103-3.176-0.827-4.374
		C304.913,0.688,303.443,0,301.811,0h-96.539c-1.632,0-3.102,0.688-4.032,1.886c-0.931,1.198-1.232,2.793-0.827,4.375l3.441,13.438
		c-14.214,0.249-20.033,8.988-20.033,29.989c0,15.501,11.926,28.261,27.083,29.605c2.11,5.598,5.923,10.895,10.379,13.865
		l18.637,12.425l-3.513,21.302h-12.106c-2.755,0-5.489,2.078-6.226,4.731l-5.479,19.714c-0.392,1.413-0.155,2.831,0.65,3.892
		c0.806,1.059,2.109,1.667,3.576,1.667h6.244l-4.62,4.349c-3.952,3.719-11.352,9.655-15.834,12.703l-40.301,27.389
		c0,0-60.916,0.042-60.991,0.042c-7.811,0-12.945,2.997-17.128,8.223l-26.258,32.802c-4.247,5.305-11.005,14.121-15.063,19.654
		l-17.793,24.262c-3.463,4.723-4.88,10.512-3.989,16.3c0.891,5.788,3.981,10.883,8.703,14.346c3.788,2.777,8.266,4.245,12.95,4.245
		c6.966,0,13.581-3.35,17.695-8.959l15.949-21.748l-3.496,39.069L42.116,475.722c-1.272,6.041-0.116,12.217,3.257,17.388
		c3.373,5.172,8.559,8.721,14.598,9.992c1.574,0.333,3.184,0.502,4.786,0.502c10.855,0,20.359-7.721,22.598-18.358l28.801-136.778
		h7.5l4.113,46.168c0.494,5.544,0.743,15.29,0.533,20.857l-2.424,64.117c-0.233,6.17,1.949,12.061,6.148,16.589
		c4.198,4.528,9.908,7.15,16.081,7.384c0.296,0.011,0.591,0.018,0.884,0.018c12.474,0,22.614-9.771,23.085-22.244l2.424-64.114
		c0.284-7.497-0.015-19.23-0.682-26.71l-6.151-69.033c-0.017-0.189-0.055-0.369-0.076-0.557l6.689-74.731l52.982-36.007
		c6.328-4.3,15.657-11.783,21.238-17.035l5.007-4.713l5.005,4.711c5.576,5.25,14.906,12.734,21.24,17.039l49.154,33.406l6.921,77.33
		c-0.021,0.186-0.06,0.368-0.076,0.557l-6.151,69.031c-0.666,7.468-0.973,19.188-0.698,26.681l2.439,66.809
		c0.455,12.489,10.596,22.272,23.086,22.272c0.285,0,0.573-0.005,0.856-0.016c6.171-0.225,11.884-2.839,16.088-7.361
		c4.204-4.522,6.395-10.411,6.169-16.581l-2.44-66.809c-0.203-5.578,0.053-15.339,0.548-20.89l4.113-46.168h7.502l10.961,52.048
		c1.396,6.631,3.819,17.359,5.402,23.914l14.842,61.478c2.515,10.419,11.748,17.696,22.453,17.696c1.828,0,3.659-0.219,5.441-0.651
		c12.39-2.99,20.036-15.504,17.045-27.895l-14.841-61.477c-1.5-6.216-3.79-16.35-5.104-22.592l-12.938-61.434l-3.897-43.554
		c0.511,0.686,0.992,1.338,1.434,1.939l17.793,24.262c4.115,5.609,10.73,8.959,17.695,8.959c4.685,0,9.162-1.468,12.949-4.245
		c4.723-3.463,7.814-8.558,8.704-14.346C486.093,296.783,484.676,290.994,481.213,286.272z M299.295,31.976
		c0.155-0.174,0.302-0.354,0.439-0.542c0.978-0.04,1.92-0.073,2.794-0.073c5.021,0,8.987,0,8.987,18.326
		c0,7.914-5.119,14.655-12.22,17.087V31.976z M207.715,66.775c-7.101-2.432-12.22-9.173-12.22-17.087
		c0-18.326,3.965-18.326,8.985-18.326c0.898,0,1.867,0.034,2.876,0.076c0.111,0.153,0.234,0.299,0.358,0.443V66.775z
		 M239.323,68.607c-0.431-0.594-0.839-1.625-0.337-3.167l3.683-11.334c-0.02,0.053-0.047-0.034-0.07-0.066l-9.573-6.942
		c-1.975-1.436-1.608-3.148-1.448-3.639c0.159-0.491,0.869-2.093,3.311-2.093h11.918c-0.055-0.003,0.018-0.056,0.042-0.089
		l3.645-11.247c0.756-2.321,2.498-2.502,3.014-2.502c0.516,0,2.258,0.181,3.013,2.5l3.684,11.336
		c-0.015-0.054,0.057-0.002,0.097,0.012l11.823-0.01c2.441,0,3.151,1.602,3.311,2.093c0.16,0.49,0.526,2.203-1.447,3.639
		l-9.642,7.006c0.04-0.035,0.017,0.055,0.018,0.095l3.662,11.244c0.501,1.54,0.093,2.571-0.338,3.165
		c-0.542,0.747-1.391,1.176-2.328,1.176c-0.736,0-1.48-0.269-2.21-0.799l-9.642-7.006l-9.646,7.006
		C242.204,70.188,240.291,69.941,239.323,68.607z"/>
	<path d="M135.144,192.509c28.559,0,51.794-23.242,51.794-51.811c0-28.567-23.234-51.809-51.794-51.809
		c-28.567,0-51.808,23.241-51.808,51.809C83.336,169.267,106.576,192.509,135.144,192.509z"/>
</g>
<g>
</g>
<g>
</g>
<g>
</g>
<g>
</g>
<g>
</g>
<g>
</g>
<g>
</g>
<g>
</g>
<g>
</g>
<g>
</g>
<g>
</g>
<g>
</g>
<g>
</g>
<g>
</g>
<g>
</g>
</svg>
