<?xml version="1.0" encoding="iso-8859-1"?>
<!-- Generator: Adobe Illustrator 16.0.0, SVG Export Plug-In . SVG Version: 6.00 Build 0)  -->
<!DOCTYPE svg PUBLIC "-//W3C//DTD SVG 1.1//EN" "http://www.w3.org/Graphics/SVG/1.1/DTD/svg11.dtd">
<svg version="1.1" id="Capa_1" xmlns="http://www.w3.org/2000/svg" xmlns:xlink="http://www.w3.org/1999/xlink" x="0px" y="0px"
	 width="123.328px" height="123.328px" viewBox="0 0 123.328 123.328" style="enable-background:new 0 0 123.328 123.328;"
	 xml:space="preserve">
<g>
	<g>
		<path d="M49.489,63.315c-7.588,1.247-14.005,3.058-18.782,5.137c-1.689,0.736-3.24,2.933-3.389,4.771
			c-0.096,1.211-0.146,2.438-0.146,3.673c0,1.234,0.051,2.461,0.146,3.672c0.148,1.837,1.7,4.035,3.389,4.77
			c4.777,2.082,11.191,3.891,18.782,5.139c1.817,0.298,3.162-0.993,3.035-2.829c-0.244-3.567-0.372-7.173-0.372-10.75
			c0-3.578,0.128-7.186,0.372-10.75C52.651,64.309,51.307,63.019,49.489,63.315z"/>
		<path d="M56.12,119.195c1.72,0.666,2.56-0.281,1.938-2.016c-1.849-5.16-3.274-11.252-4.262-17.786
			c-0.273-1.822-1.936-3.487-3.76-3.761c-6.533-0.988-12.625-2.415-17.786-4.264c-1.734-0.62-2.683,0.221-2.017,1.939
			C34.836,105.159,44.273,114.597,56.12,119.195z"/>
		<path d="M64.096,35.069c-2.082,4.779-3.892,11.19-5.138,18.781c-0.3,1.819,0.988,3.163,2.826,3.036
			c3.567-0.246,7.174-0.372,10.752-0.372c3.579,0,7.183,0.126,10.749,0.372c1.838,0.127,3.127-1.217,2.828-3.036
			c-1.246-7.587-3.058-14.002-5.136-18.781c-0.736-1.688-2.933-3.239-4.771-3.389c-1.21-0.099-2.437-0.146-3.671-0.146
			c-1.237,0-2.462,0.05-3.674,0.146C67.027,31.831,64.831,33.382,64.096,35.069z"/>
		<path d="M56.12,34.598c-11.847,4.601-21.284,14.038-25.886,25.889c-0.664,1.718,0.282,2.558,2.017,1.938
			c5.161-1.851,11.253-3.274,17.785-4.262c1.823-0.275,3.487-1.94,3.761-3.762c0.988-6.534,2.413-12.626,4.262-17.786
			C58.682,34.88,57.84,33.933,56.12,34.598z"/>
		<path d="M91.27,54.4c0.273,1.821,1.938,3.486,3.761,3.762c6.532,0.987,12.625,2.411,17.785,4.259
			c1.735,0.622,2.685-0.22,2.016-1.938c-4.601-11.849-14.036-21.286-25.888-25.887c-1.717-0.665-2.557,0.283-1.938,2.017
			C88.857,41.774,90.282,47.867,91.27,54.4z"/>
		<path d="M117.75,73.226c-0.147-1.838-1.702-4.036-3.39-4.771c-4.777-2.081-11.194-3.889-18.782-5.135
			c-1.816-0.3-3.161,0.989-3.035,2.828c0.245,3.565,0.371,7.174,0.371,10.75c0,3.578-0.126,7.186-0.371,10.753
			c-0.126,1.838,1.219,3.128,3.035,2.827c7.588-1.246,14.005-3.058,18.782-5.137c1.691-0.735,3.241-2.937,3.39-4.771
			c0.101-1.213,0.146-2.438,0.146-3.675C117.895,75.662,117.845,74.434,117.75,73.226z"/>
		<path d="M87.911,76.896c0-3.931-0.146-7.723-0.421-11.35c-0.137-1.836-1.771-3.471-3.606-3.607
			c-3.627-0.272-7.416-0.421-11.351-0.421c-3.929,0-7.722,0.147-11.348,0.421c-1.837,0.138-3.472,1.771-3.61,3.607
			c-0.272,3.626-0.421,7.419-0.421,11.35c0,3.93,0.148,7.723,0.421,11.35c0.14,1.835,1.773,3.475,3.61,3.609
			c3.625,0.271,7.418,0.421,11.348,0.421s7.724-0.149,11.351-0.421c1.836-0.141,3.471-1.774,3.606-3.609
			C87.766,84.619,87.911,80.827,87.911,76.896z"/>
		<path d="M112.817,91.37c-5.16,1.853-11.252,3.276-17.786,4.264c-1.822,0.272-3.486,1.938-3.761,3.761
			c-0.988,6.531-2.413,12.626-4.261,17.786c-0.622,1.733,0.219,2.685,1.936,2.016c11.852-4.601,21.289-14.037,25.889-25.886
			C115.5,91.59,114.552,90.75,112.817,91.37z"/>
		<path d="M83.283,96.905c-3.565,0.245-7.173,0.373-10.754,0.373c-3.577,0-7.179-0.128-10.748-0.373
			c-1.837-0.126-3.127,1.219-2.827,3.036c1.248,7.59,3.058,14.004,5.136,18.782c0.735,1.689,2.934,3.24,4.77,3.389
			c1.211,0.1,2.436,0.147,3.674,0.147c1.234,0,2.46-0.053,3.67-0.147c1.839-0.147,4.035-1.699,4.771-3.389
			c2.082-4.778,3.891-11.192,5.138-18.782C86.409,98.123,85.12,96.779,83.283,96.905z"/>
		<path d="M37.556,22.22c0.357,0.273,0.657,0.167,0.823,0.05c-0.12,0.153-0.328,0.455-0.644,1.005c0,0-1.123,1.688-0.75,2.253
			l0.007,0.01c0.378,0.573,2.365,0.203,2.365,0.203c0.628-0.075,0.987-0.147,1.181-0.195c-0.177,0.107-0.392,0.34-0.281,0.772
			l1.011,3.391c0.016,0.051,0.037,0.096,0.057,0.14l2.663-2.288l0.218-2.881c0.016-0.221,0.062-0.494,0.062-0.494
			s0.531-0.362,0.697-0.437l9.396-5.774l4.911,14.228c0.134,0.38,0.488,0.478,0.795,0.216l2.581-2.21
			c0.307-0.264,0.5-0.799,0.433-1.202l-2.554-15.133l8.995-6.295c1.657-1.165,2.978-2.952,2.948-4.001
			c-0.012-0.396-0.146-0.798-0.362-1.164l-0.005-0.009c-0.25-0.343-0.566-0.626-0.93-0.791c-0.946-0.438-3.115,0.065-4.839,1.128
			l-9.333,5.776L44.104,0.188c-0.343-0.218-0.908-0.253-1.273-0.074l-3.048,1.497c-0.364,0.179-0.415,0.542-0.118,0.816
			l11.131,10.134l-9.017,6.349c-0.132,0.124-0.676,0.471-0.676,0.471s-0.271-0.069-0.481-0.142l-2.733-0.938l-3.152,1.545
			c0.033,0.036,0.064,0.073,0.109,0.105L37.556,22.22z"/>
		<g>
			<path d="M7.875,68.89c0.153-1.395,0.442-2.738,0.747-4.15c0.114-0.528,0.227-1.054,0.333-1.58
				c0.117-0.688,0.322-1.331,0.54-2.012c0.109-0.341,0.217-0.681,0.316-1.023l0.931-2.974c0.283-0.663,0.553-1.327,0.822-1.986
				c0.521-1.277,1.012-2.483,1.569-3.625l1.38-2.628c0.126-0.232,0.258-0.486,0.389-0.74c0.306-0.589,0.594-1.146,0.918-1.609
				c0.405-0.612,0.766-1.18,1.122-1.741c0.652-1.027,1.269-1.998,1.921-2.882l3.082-3.965c0.682-0.764,1.4-1.535,2.09-2.277
				l0.987-1.064c0.773-0.89,1.609-1.641,2.417-2.367l3.003-2.703c1.036-0.819,1.925-1.489,2.651-2.036
				c0.241-0.182,0.464-0.35,0.669-0.506l1.248,1.716c-0.229,0.16-0.476,0.331-0.745,0.516c-0.772,0.533-1.713,1.183-2.769,1.948
				l-0.11,0.086l-2.822,2.356c-0.771,0.633-1.644,1.351-2.5,2.266l-2.979,2.966L22.971,39l-3.061,3.616
				c-0.729,0.901-1.378,1.834-2.005,2.737c-0.357,0.514-0.72,1.036-1.099,1.556c-0.444,0.573-0.806,1.208-1.155,1.82
				c-0.122,0.213-0.244,0.428-0.371,0.64l-1.423,2.449c-0.629,1.163-1.163,2.327-1.678,3.452c-0.295,0.644-0.593,1.294-0.908,1.944
				l-0.082,0.196l-1.017,2.838c-0.108,0.321-0.211,0.599-0.313,0.875c-0.255,0.691-0.545,1.475-0.719,2.323
				c-0.105,0.427-0.235,0.924-0.365,1.424C8.438,66.162,8.092,67.49,7.875,68.89z"/>
			<path d="M34.177,24.192c0,0-0.456,0.347-1.313,0.998c-0.856,0.66-2.113,1.579-3.712,2.844c-0.795,0.716-1.676,1.509-2.635,2.371
				c-0.954,0.864-2.015,1.777-2.966,2.873c-0.988,1.073-2.056,2.197-3.143,3.414c-1.002,1.29-2.055,2.646-3.155,4.061
				c-1.062,1.439-2.01,3.056-3.071,4.662c-0.554,0.79-0.964,1.688-1.438,2.564c-0.464,0.881-0.933,1.776-1.408,2.684
				c-0.897,1.84-1.628,3.824-2.473,5.795c-0.321,1.027-0.645,2.065-0.974,3.113c-0.304,1.053-0.708,2.087-0.895,3.194
				c-0.44,2.191-1.018,4.39-1.178,6.691c-0.11,1.146-0.287,2.287-0.34,3.445c-0.012,1.162-0.022,2.33-0.034,3.501
				c0.008,0.586-0.036,1.171,0.015,1.758l0.166,1.76c0.125,1.174,0.196,2.354,0.369,3.523l0.719,3.485
				c0.136,0.576,0.204,1.17,0.396,1.732l0.55,1.695c0.386,1.121,0.696,2.27,1.146,3.363l1.478,3.226
				c0.443,1.095,1.075,2.09,1.691,3.088c0.629,1.013,1.17,1.973,1.868,3.012c0.682,0.901,1.361,1.797,2.037,2.691
				c0.752,0.875,1.541,1.734,2.304,2.591c1.601,1.625,3.229,3.156,4.984,4.487c3.47,2.701,7.187,4.794,10.862,6.372
				c3.697,1.55,7.358,2.516,10.761,3.199c1.72,0.244,3.352,0.58,4.932,0.666c0.787,0.067,1.554,0.134,2.298,0.196
				c0.747,0.019,1.472,0.033,2.175,0.049c0.555,0.005,1.094,0.03,1.618,0.03c0.141,0,0.282-0.002,0.421-0.006
				c0.654-0.03,1.286-0.059,1.894-0.087c0.606-0.027,1.188-0.054,1.742-0.079c0.553-0.062,1.081-0.119,1.581-0.175
				c0.999-0.12,1.896-0.188,2.665-0.315c0.771-0.135,1.424-0.25,1.955-0.342c1.06-0.186,1.625-0.285,1.625-0.285
				s-0.569,0.075-1.636,0.216c-0.532,0.07-1.189,0.156-1.962,0.259c-0.773,0.097-1.671,0.125-2.669,0.202
				c-0.5,0.034-1.025,0.069-1.577,0.106c-0.555,0.003-1.133,0.004-1.736,0.006c-0.603,0.003-1.229,0.004-1.881,0.007
				c-0.65-0.007-1.323-0.072-2.018-0.107c-0.693-0.045-1.41-0.091-2.147-0.139c-0.732-0.095-1.485-0.191-2.259-0.291
				c-1.554-0.148-3.147-0.551-4.823-0.859c-3.312-0.813-6.849-1.911-10.372-3.565c-3.503-1.684-6.999-3.855-10.21-6.579
				c-1.621-1.34-3.121-2.882-4.562-4.47c-0.674-0.823-1.353-1.651-2.035-2.484c-0.638-0.92-1.278-1.846-1.922-2.773
				c-2.151-3.709-4.256-7.753-5.248-12.076l-0.45-1.599c-0.157-0.529-0.194-1.091-0.299-1.634L9.356,82.99
				c-0.114-1.096-0.13-2.2-0.201-3.293l-0.089-1.637c-0.026-0.544,0.044-1.091,0.06-1.635c0.055-1.086,0.11-2.167,0.166-3.243
				c0.095-1.071,0.31-2.129,0.454-3.185c0.229-2.121,0.866-4.145,1.353-6.151c0.208-1.015,0.633-1.962,0.955-2.924
				c0.344-0.955,0.682-1.903,1.018-2.84c0.869-1.795,1.614-3.597,2.515-5.263c0.477-0.82,0.946-1.629,1.409-2.426
				c0.473-0.789,0.878-1.601,1.426-2.31c1.052-1.441,1.978-2.895,3.016-4.18c1.065-1.26,2.088-2.467,3.061-3.615
				c1.065-1.063,2.075-2.069,3.026-3.015c0.925-0.987,1.892-1.735,2.762-2.46c0.867-0.727,1.665-1.393,2.385-1.995
				c1.6-1.159,2.932-2.05,3.803-2.667c0.884-0.613,1.355-0.942,1.355-0.942L34.177,24.192L34.177,24.192z M67.694,122.04h0.005
				H67.694z"/>
		</g>
	</g>
</g>
<g>
</g>
<g>
</g>
<g>
</g>
<g>
</g>
<g>
</g>
<g>
</g>
<g>
</g>
<g>
</g>
<g>
</g>
<g>
</g>
<g>
</g>
<g>
</g>
<g>
</g>
<g>
</g>
<g>
</g>
</svg>
