<?xml version="1.0" encoding="iso-8859-1"?>
<!-- Generator: Adobe Illustrator 18.1.1, SVG Export Plug-In . SVG Version: 6.00 Build 0)  -->
<svg version="1.1" id="Capa_1" xmlns="http://www.w3.org/2000/svg" xmlns:xlink="http://www.w3.org/1999/xlink" x="0px" y="0px"
	 viewBox="0 0 612.001 612.001" style="enable-background:new 0 0 612.001 612.001;" xml:space="preserve">
<g>
	<path d="M515.77,431.781c0,0-8.917-201.817-135.072-260.518c9.256-14.101,18.176-28.427,26.626-43.018
		c11.122-19.209,21.523-39.136,28.899-60.119c6.369-18.114,5.823-47.837-11.421-60.579c-14.977-11.067-36.904-7.818-53.604-3.712
		c-13.713,3.372-26.816,8.892-39.847,14.25c-9.108,3.749-18.35,7.339-27.793,10.154c-10.094,3.008-18.161,5.486-31.057-1.625
		c-3.358-1.854-6.701-3.715-10.149-5.399c-10.489-5.129-20.946-8.324-32.719-8.279c-21.403,0.073-43.208,11.615-53.512,30.642
		c-9.077,16.763-7.027,32.818,0.289,49.305c10.566,23.817,29.965,44.772,46.745,64.328c3.586,4.178,7.213,8.324,10.879,12.44
		C104.478,226.17,95.389,431.78,95.389,431.78S78.575,612.001,305.581,612.001C544.968,612.001,515.77,431.781,515.77,431.781z
		 M371.831,455.847c-2.696,7.371-6.609,14.092-11.651,19.969c-5.034,5.884-11.17,10.875-18.282,14.815
		c-4.124,2.308-8.558,4.169-13.267,5.604v11.804c0,10.293-8.349,18.649-18.654,18.649h-2.006c-10.307,0-18.658-8.356-18.658-18.649
		v-9.798c-3.489-0.672-6.883-1.582-10.145-2.739c-6.871-2.407-13.223-5.74-18.888-9.89c-5.66-4.163-10.673-9.113-14.864-14.721
		c-2.996-4.008-5.564-8.368-7.631-12.951c-3.62-8.051-1.102-17.527,6.015-22.739l3.089-2.235c4.302-3.14,9.736-4.295,14.934-3.157
		c5.211,1.121,9.679,4.414,12.297,9.048c1,1.778,2.109,3.46,3.336,4.986c2.252,2.858,4.828,5.314,7.658,7.272
		c2.814,1.955,5.92,3.504,9.237,4.579c3.229,1.039,6.616,1.579,10.071,1.579c4.569,0,8.65-0.648,12.103-1.912
		c3.225-1.191,5.93-2.795,8.031-4.797c2.018-1.921,3.598-4.331,4.695-7.172c1.22-3.105,1.82-6.702,1.82-10.724
		c0-4.001-0.674-7.226-2.04-9.577c-1.614-2.827-3.817-5.299-6.515-7.345c-3.283-2.494-7.09-4.721-11.35-6.631
		c-5.08-2.285-10.297-4.547-15.513-6.75c-5.619-2.366-11.224-4.964-16.623-7.733c-6.129-3.137-11.714-7.021-16.583-11.547
		c-5.204-4.846-9.434-10.717-12.578-17.448c-3.229-6.947-4.863-15.182-4.863-24.496c0-7.546,1.351-14.795,4.03-21.529
		c2.664-6.702,6.483-12.781,11.34-18.047c4.845-5.245,10.726-9.633,17.506-13.053c3.598-1.803,7.419-3.288,11.432-4.443v-10.045
		c0-10.293,8.351-18.648,18.658-18.648h2.006c10.305,0,18.655,8.354,18.655,18.648v9.354c6.964,1.672,13.396,4.261,19.223,7.776
		c7.026,4.219,13.094,9.55,18.079,15.853c5.513,7.009,5.323,16.933-0.481,23.698l-2.991,3.496
		c-3.443,3.999-8.409,6.372-13.699,6.497c-5.296,0.124-10.356-1.975-13.988-5.811c-0.784-0.818-1.592-1.599-2.419-2.341
		c-2.138-1.927-4.438-3.606-6.837-4.983c-2.266-1.305-4.704-2.356-7.208-3.086c-2.332-0.679-4.714-1.027-7.097-1.027
		c-3.897,0-7.352,0.522-10.241,1.548c-2.696,0.944-4.945,2.211-6.673,3.746c-1.662,1.487-2.885,3.135-3.754,5.037
		c-0.84,1.856-1.255,3.836-1.255,6.046c0,3.441,0.618,6.178,1.824,8.113c1.574,2.543,3.737,4.785,6.442,6.679
		c3.36,2.366,7.281,4.518,11.665,6.398c5.16,2.225,10.435,4.494,15.812,6.794c5.706,2.456,11.379,5.19,16.865,8.155
		c6.19,3.321,11.828,7.493,16.739,12.365c5.2,5.163,9.402,11.389,12.496,18.539c3.13,7.242,4.724,15.922,4.724,25.769
		C375.859,440.7,374.495,448.519,371.831,455.847z"/>
</g>
<g>
</g>
<g>
</g>
<g>
</g>
<g>
</g>
<g>
</g>
<g>
</g>
<g>
</g>
<g>
</g>
<g>
</g>
<g>
</g>
<g>
</g>
<g>
</g>
<g>
</g>
<g>
</g>
<g>
</g>
</svg>
