<?xml version="1.0" encoding="iso-8859-1"?>
<!-- Generator: Adobe Illustrator 16.0.0, SVG Export Plug-In . SVG Version: 6.00 Build 0)  -->
<!DOCTYPE svg PUBLIC "-//W3C//DTD SVG 1.1//EN" "http://www.w3.org/Graphics/SVG/1.1/DTD/svg11.dtd">
<svg version="1.1" id="Capa_1" xmlns="http://www.w3.org/2000/svg" xmlns:xlink="http://www.w3.org/1999/xlink" x="0px" y="0px"
	 width="359.7px" height="359.699px" viewBox="0 0 359.7 359.699" style="enable-background:new 0 0 359.7 359.699;"
	 xml:space="preserve">
<g>
	<g>
		<g>
			<path d="M96.533,211.692c0.625,4.6,1.667,9.308,2.693,13.848l0.036,0.21c4.342,19.342,7.746,34.6-15.945,43.625l-4.591,2.126
				c-1.582,0.204-3.156,0.318-4.699,0.318c-38.965-0.024-62.849-62.522-64.188-94.633C7.74,110.422,23.92,72.391,57.862,64.206
				c5.846-1.186,17.15-2.552,29.778-2.552c15.231,0,42.607,2.099,54.77,16.074c5.2,5.972,7.176,13.736,5.885,23.064
				c-2.639,19.032-13.511,31.895-25.022,45.508C108.804,163.433,93.846,181.099,96.533,211.692z M100.124,225.576L100.124,225.576
				L100.124,225.576L100.124,225.576z"/>
		</g>
		<g>
			<path d="M147.118,55.316c-1.651,0-3.264-0.282-4.771-0.805c-4.846-1.723-8.521-6.026-10.355-12.126
				c-1.937-6.477-1.573-14.063,1.026-21.398C137.399,8.629,147.082,0,156.587,0c1.648,0,3.249,0.288,4.773,0.805
				c10.386,3.695,14.565,18.731,9.326,33.53C166.315,46.681,156.632,55.316,147.118,55.316z"/>
		</g>
		<g>
			<path d="M95.35,22.59c1.525-6.671,6.206-11.694,10.872-11.694c0.468,0,0.928,0.057,1.384,0.159
				c5.041,1.171,7.729,8.214,6.008,15.735c-1.636,7.194-7.374,12.697-12.256,11.535C96.323,37.157,93.63,30.111,95.35,22.59z"/>
		</g>
		<g>
			<path d="M64.534,27.382c-0.18-3.174,0.522-6.167,1.991-8.431c1.279-2.012,2.957-3.081,4.987-3.21
				c3.825,0.018,7.356,4.951,7.698,10.761c0.198,3.174-0.504,6.167-1.973,8.431c-1.255,1.955-2.927,3.086-4.66,3.191l-0.309,0.019
				C68.371,38.148,64.891,33.32,64.534,27.382z"/>
		</g>
		<g>
			<path d="M35.99,27.706c0.88-2.15,2.312-3.585,4.042-4.05c0.393-0.093,0.804-0.141,1.216-0.141c3.639,0,7.41,3.891,8.776,9.073
				c0.928,3.555,0.589,7.232-0.937,9.814c-0.588,1.039-1.685,2.369-3.426,2.816c-0.378,0.111-0.769,0.141-1.186,0.141
				c-3.603,0-7.458-3.966-8.785-9.037C34.876,33.248,35.005,30.198,35.99,27.706z"/>
		</g>
		<g>
			<path d="M14.124,45.97c0.591-1.508,1.561-2.489,2.693-2.78c0.292-0.072,0.543-0.111,0.808-0.111c2.531,0,5.257,2.909,6.221,6.623
				c0.598,2.264,0.522,4.519-0.213,6.335c-0.591,1.486-1.564,2.477-2.708,2.777c-2.618,0.646-5.957-2.435-7.014-6.512
				C13.319,50.041,13.388,47.777,14.124,45.97z"/>
		</g>
		<g>
			<path d="M285.681,359.699c-1.562,0-3.141-0.108-4.708-0.307l-4.779-2.21c-23.503-8.947-20.08-24.217-15.721-43.732
				c1.021-4.533,2.06-9.248,2.696-14.004c2.689-30.443-12.268-48.128-26.745-65.241c-11.518-13.619-22.38-26.464-25.011-45.511
				c-1.291-9.325,0.685-17.09,5.885-23.067c12.166-13.97,39.536-16.054,54.77-16.054c12.646,0,23.912,1.345,29.664,2.507
				c34.029,8.197,50.23,46.228,48.129,112.983C348.54,297.177,324.646,359.699,285.681,359.699z"/>
		</g>
		<g>
			<path d="M203.109,87.886c9.506,0,19.191,8.629,23.575,20.993c2.601,7.335,2.967,14.922,1.021,21.386
				c-1.837,6.101-5.512,10.403-10.357,12.127c-1.525,0.534-3.141,0.805-4.774,0.805c-9.506,0-19.186-8.626-23.568-20.975
				c-5.236-14.82-1.058-29.847,9.337-33.531C199.861,88.156,201.458,87.886,203.109,87.886z"/>
		</g>
		<g>
			<path d="M253.484,98.794c4.678,0,9.35,5.022,10.893,11.676c1.717,7.515-0.985,14.586-6.029,15.729
				c-0.426,0.111-0.877,0.159-1.327,0.159c-4.63,0-9.434-5.128-10.923-11.694c-1.734-7.521,0.967-14.564,6.018-15.735
				C252.523,98.851,252.998,98.794,253.484,98.794z"/>
		</g>
		<g>
			<path d="M280.5,114.382c0.354-6.008,3.891-10.73,8.034-10.748c1.741,0.129,3.41,1.255,4.665,3.209
				c1.454,2.246,2.156,5.239,1.97,8.413c-0.36,5.933-3.818,10.761-7.71,10.761h-0.306c-1.76-0.111-3.436-1.261-4.69-3.21
				C281.015,120.555,280.301,117.58,280.5,114.382z"/>
		</g>
		<g>
			<path d="M309.701,125.056c1.345-5.164,5.092-9.073,8.755-9.073c0.408,0,0.805,0.054,1.213,0.159
				c1.724,0.447,3.183,1.879,4.035,4.05c0.991,2.492,1.104,5.543,0.307,8.59c-1.466,5.654-6.155,9.902-9.975,8.917
				c-1.735-0.468-2.834-1.795-3.44-2.834C309.094,132.288,308.77,128.628,309.701,125.056z"/>
		</g>
		<g>
			<path d="M335.857,142.188c0.961-3.714,3.711-6.624,6.239-6.624c0.271,0,0.522,0.018,0.774,0.093
				c1.153,0.309,2.114,1.291,2.709,2.78c0.727,1.85,0.805,4.089,0.21,6.35c-0.949,3.696-3.711,6.605-6.275,6.605
				c-0.252,0-0.498-0.036-0.732-0.093c-1.147-0.301-2.12-1.291-2.702-2.777C335.335,146.694,335.257,144.451,335.857,142.188z"/>
		</g>
	</g>
</g>
<g>
</g>
<g>
</g>
<g>
</g>
<g>
</g>
<g>
</g>
<g>
</g>
<g>
</g>
<g>
</g>
<g>
</g>
<g>
</g>
<g>
</g>
<g>
</g>
<g>
</g>
<g>
</g>
<g>
</g>
</svg>
