<?xml version="1.0" encoding="iso-8859-1"?>
<!-- Generator: Adobe Illustrator 19.0.0, SVG Export Plug-In . SVG Version: 6.00 Build 0)  -->
<svg version="1.1" id="Layer_1" xmlns="http://www.w3.org/2000/svg" xmlns:xlink="http://www.w3.org/1999/xlink" x="0px" y="0px"
	 viewBox="0 0 512 512" style="enable-background:new 0 0 512 512;" xml:space="preserve">
<g>
	<g>
		<path d="M127.733,161.127H59.324c-4.428,0-8.017,3.588-8.017,8.017v68.409c0,4.428,3.588,8.017,8.017,8.017h68.409
			c4.428,0,8.017-3.588,8.017-8.017v-68.409C135.749,164.716,132.161,161.127,127.733,161.127z M119.716,229.536H67.34V177.16
			h52.376V229.536z"/>
	</g>
</g>
<g>
	<g>
		<path d="M230.347,161.127h-68.409c-4.428,0-8.017,3.588-8.017,8.017v68.409c0,4.428,3.588,8.017,8.017,8.017h68.409
			c4.428,0,8.017-3.588,8.017-8.017v-68.409C238.363,164.715,234.775,161.127,230.347,161.127z M222.33,229.536h-52.376V177.16
			h52.376V229.536z"/>
	</g>
</g>
<g>
	<g>
		<path d="M127.733,263.74H59.324c-4.428,0-8.017,3.588-8.017,8.017v68.409c0,4.428,3.588,8.017,8.017,8.017h68.409
			c4.428,0,8.017-3.588,8.017-8.017v-68.409C135.749,267.33,132.161,263.74,127.733,263.74z M119.716,332.15H67.34v-52.376h52.376
			V332.15z"/>
	</g>
</g>
<g>
	<g>
		<path d="M392.284,217.303V66.53c0-4.428-3.588-8.017-8.017-8.017h-34.739v-43.29c0-4.428-3.588-8.017-8.017-8.017h-34.205
			c-4.428,0-8.017,3.588-8.017,8.017v43.29h-78.029v-43.29c0-4.428-3.588-8.017-8.017-8.017H179.04
			c-4.428,0-8.017,3.588-8.017,8.017v43.29H92.994v-43.29c0-4.428-3.588-8.017-8.017-8.017H50.772c-4.428,0-8.017,3.588-8.017,8.017
			v43.29H8.017C3.588,58.513,0,62.101,0,66.53v307.841c0,4.428,3.588,8.017,8.017,8.017h216.051
			c5.078,32.621,21.191,62.556,45.872,84.923c26.672,24.172,61.201,37.484,97.225,37.484c79.862,0,144.835-64.973,144.835-144.835
			C512,289.425,461.016,229.312,392.284,217.303z M315.324,66.53v-43.29h18.171v43.29v43.29h-18.171V66.53z M187.056,66.53v-43.29
			h18.171v43.29v43.29h-18.171V66.53z M58.789,66.53v-43.29H76.96v43.29v43.29H58.789V66.53z M230.347,263.741h-68.409
			c-4.428,0-8.017,3.588-8.017,8.017v68.409c0,4.428,3.588,8.017,8.017,8.017h60.886c-0.316,3.906-0.494,7.832-0.494,11.777
			c0,2.122,0.058,4.257,0.152,6.394H16.033V74.546h26.722v43.29c0,4.428,3.588,8.017,8.017,8.017h34.205
			c4.428,0,8.017-3.588,8.017-8.017v-43.29h78.029v43.29c0,4.428,3.588,8.017,8.017,8.017h34.205c4.428,0,8.017-3.588,8.017-8.017
			v-43.29h78.029v43.29c0,4.428,3.588,8.017,8.017,8.017h34.205c4.428,0,8.017-3.588,8.017-8.017v-43.29h26.722v140.862
			c-3.029-0.188-6.065-0.283-9.086-0.283c-8.812,0-17.581,0.807-26.188,2.378v-48.359c0-4.428-3.588-8.017-8.017-8.017h-68.409
			c-4.428,0-8.017,3.588-8.017,8.017v68.409c0,4.428,3.588,8.017,8.017,8.017h13.797c-13.271,10.313-24.725,22.889-33.776,37.241
			c-2.24,3.552-4.297,7.198-6.209,10.909v-21.963C238.363,267.33,234.775,263.741,230.347,263.741z M222.33,279.774v52.376h-52.376
			v-52.376H222.33z M324.944,177.16v44.232c-7.103,2.166-14.063,4.893-20.783,8.144h-31.593V177.16H324.944z M367.165,488.762
			c-66.138,0-121.2-49.524-128.088-115.2c-0.001-0.01-0.002-0.019-0.003-0.028c-0.471-4.506-0.711-9.074-0.711-13.574
			c0-49.081,27.287-93.234,71.213-115.233c0.003-0.002,0.007-0.003,0.011-0.004c8.118-4.064,16.653-7.262,25.368-9.505
			c0.001,0,0.002,0,0.003-0.001c10.459-2.694,21.296-4.059,32.206-4.059c5.368,0,10.788,0.337,16.109,1c0.001,0,0.002,0,0.002,0
			c64.246,8.012,112.691,62.955,112.691,127.801C495.967,430.982,438.187,488.762,367.165,488.762z"/>
	</g>
</g>
<g>
	<g>
		<path d="M478.452,320.366c-1.488-4.171-6.078-6.345-10.244-4.858c-4.17,1.488-6.345,6.075-4.858,10.244
			c3.911,10.965,5.895,22.473,5.895,34.208c0,4.428,3.588,8.017,8.017,8.017c4.428,0,8.017-3.588,8.017-8.017
			C485.278,346.385,482.982,333.064,478.452,320.366z"/>
	</g>
</g>
<g>
	<g>
		<path d="M464.311,292.842c-15.655-22.592-38.754-39.127-65.043-46.561c-4.263-1.207-8.691,1.271-9.896,5.533
			c-1.205,4.261,1.272,8.691,5.533,9.896c22.718,6.424,42.687,20.724,56.227,40.264c1.557,2.247,4.057,3.451,6.597,3.451
			c1.574,0,3.166-0.464,4.559-1.428C465.926,301.476,466.832,296.481,464.311,292.842z"/>
	</g>
</g>
<g>
	<g>
		<path d="M367.165,269.123c-50.087,0-90.836,40.748-90.836,90.836s40.748,90.837,90.836,90.837s90.836-40.749,90.836-90.837
			S417.252,269.123,367.165,269.123z M367.165,434.763c-41.246,0-74.802-33.557-74.802-74.803s33.557-74.802,74.802-74.802
			c41.245,0,74.802,33.557,74.802,74.802C441.967,401.208,408.411,434.763,367.165,434.763z"/>
	</g>
</g>
<g>
	<g>
		<path d="M414.196,357.803h-39.015v-39.015c0-4.428-3.588-8.017-8.017-8.017c-4.428,0-8.017,3.588-8.017,8.017v47.031
			c0,4.428,3.588,8.017,8.017,8.017h47.031c4.428,0,8.017-3.588,8.017-8.017C422.213,361.392,418.625,357.803,414.196,357.803z"/>
	</g>
</g>
<g>
</g>
<g>
</g>
<g>
</g>
<g>
</g>
<g>
</g>
<g>
</g>
<g>
</g>
<g>
</g>
<g>
</g>
<g>
</g>
<g>
</g>
<g>
</g>
<g>
</g>
<g>
</g>
<g>
</g>
</svg>
