<?xml version="1.0" encoding="iso-8859-1"?>
<!-- Generator: Adobe Illustrator 19.0.0, SVG Export Plug-In . SVG Version: 6.00 Build 0)  -->
<svg version="1.1" id="Layer_1" xmlns="http://www.w3.org/2000/svg" xmlns:xlink="http://www.w3.org/1999/xlink" x="0px" y="0px"
	 viewBox="0 0 512 512" style="enable-background:new 0 0 512 512;" xml:space="preserve">
<g>
	<g>
		<path d="M495.195,69.462h-54.337V56.018c0-9.281-7.524-16.805-16.805-16.805c-9.281,0-16.805,7.524-16.805,16.805v13.444h-50.416
			V56.018c0-9.281-7.524-16.805-16.805-16.805c-9.281,0-16.805,7.524-16.805,16.805v13.444h-50.416V56.018
			c0-9.281-7.524-16.805-16.805-16.805c-9.281,0-16.805,7.524-16.805,16.805v13.444h-50.416V56.018
			c0-9.281-7.524-16.805-16.805-16.805c-9.281,0-16.805,7.524-16.805,16.805v13.444h-50.416V56.018
			c0-9.281-7.524-16.805-16.805-16.805c-9.281,0-16.805,7.524-16.805,16.805v13.444H16.805C7.524,69.462,0,76.986,0,86.267v369.716
			c0,9.281,7.524,16.805,16.805,16.805h478.39c9.281,0,16.805-7.524,16.805-16.805V86.267C512,76.986,504.476,69.462,495.195,69.462
			z M478.39,439.177H33.61V103.072h37.532v10.669c0,9.281,7.524,16.805,16.805,16.805c9.281,0,16.805-7.524,16.805-16.805v-10.669
			h50.416v10.669c0,9.281,7.524,16.805,16.805,16.805c9.281,0,16.805-7.524,16.805-16.805v-10.669h50.416v10.669
			c0,9.281,7.524,16.805,16.805,16.805c9.281,0,16.805-7.524,16.805-16.805v-10.669h50.416v10.669
			c0,9.281,7.524,16.805,16.805,16.805c9.281,0,16.805-7.524,16.805-16.805v-10.669h50.416v10.669
			c0,9.281,7.524,16.805,16.805,16.805c9.281,0,16.805-7.524,16.805-16.805v-10.669h37.532V439.177z"/>
	</g>
</g>
<g>
	<g>
		<path d="M283.449,322.661h-54.897c-9.281,0-16.805,7.524-16.805,16.805v54.897c0,9.281,7.524,16.805,16.805,16.805h54.897
			c9.281,0,16.805-7.524,16.805-16.805v-54.897C300.254,330.185,292.73,322.661,283.449,322.661z M266.643,377.558h-21.287v-21.287
			h21.287V377.558z"/>
	</g>
</g>
<g>
	<g>
		<path d="M408.088,322.661H353.19c-9.281,0-16.805,7.524-16.805,16.805v54.897c0,9.281,7.524,16.805,16.805,16.805h54.897
			c9.281,0,16.805-7.524,16.805-16.805v-54.897C424.893,330.185,417.369,322.661,408.088,322.661z M391.282,377.558h-21.287v-21.287
			h21.287V377.558z"/>
	</g>
</g>
<g>
	<g>
		<path d="M158.81,322.661h-54.897c-9.281,0-16.805,7.524-16.805,16.805v54.897c0,9.281,7.524,16.805,16.805,16.805h54.897
			c9.281,0,16.805-7.524,16.805-16.805v-54.897C175.615,330.185,168.091,322.661,158.81,322.661z M142.004,377.558h-21.287v-21.287
			h21.287V377.558z"/>
	</g>
</g>
<g>
	<g>
		<path d="M283.449,191.58h-54.897c-9.281,0-16.805,7.524-16.805,16.805v54.897c0,9.281,7.524,16.805,16.805,16.805h54.897
			c9.281,0,16.805-7.524,16.805-16.805v-54.897C300.254,199.104,292.73,191.58,283.449,191.58z M266.643,246.477h-21.287V225.19
			h21.287V246.477z"/>
	</g>
</g>
<g>
	<g>
		<path d="M408.088,191.58H353.19c-9.281,0-16.805,7.524-16.805,16.805v54.897c0,9.281,7.524,16.805,16.805,16.805h54.897
			c9.281,0,16.805-7.524,16.805-16.805v-54.897C424.893,199.104,417.369,191.58,408.088,191.58z M391.282,246.477h-21.287V225.19
			h21.287V246.477z"/>
	</g>
</g>
<g>
	<g>
		<path d="M158.81,191.58h-54.897c-9.281,0-16.805,7.524-16.805,16.805v54.897c0,9.281,7.524,16.805,16.805,16.805h54.897
			c9.281,0,16.805-7.524,16.805-16.805v-54.897C175.615,199.104,168.091,191.58,158.81,191.58z M142.004,246.477h-21.287V225.19
			h21.287V246.477z"/>
	</g>
</g>
<g>
</g>
<g>
</g>
<g>
</g>
<g>
</g>
<g>
</g>
<g>
</g>
<g>
</g>
<g>
</g>
<g>
</g>
<g>
</g>
<g>
</g>
<g>
</g>
<g>
</g>
<g>
</g>
<g>
</g>
</svg>
