<?xml version="1.0" encoding="iso-8859-1"?>
<!-- Generator: Adobe Illustrator 19.0.0, SVG Export Plug-In . SVG Version: 6.00 Build 0)  -->
<svg version="1.1" id="Layer_1" xmlns="http://www.w3.org/2000/svg" xmlns:xlink="http://www.w3.org/1999/xlink" x="0px" y="0px"
	 viewBox="0 0 512.013 512.013" style="enable-background:new 0 0 512.013 512.013;" xml:space="preserve">
<g>
	<g>
		<g>
			<path d="M504.713,346.615L362.27,221.965c0.128,0,0.256,0.064,0.405,0.064c11.797,0,21.333-9.557,21.333-21.333v-21.333
				c0-11.776-9.536-21.333-21.333-21.333s-21.333,9.557-21.333,21.333v21.333c0,1.067,0.085,2.133,0.235,3.157l-7.531-6.571
				c-6.016-5.269-14.464-6.699-21.867-3.797c-5.504,2.176-9.728,6.485-11.904,11.797c-0.021,0.064-0.085,0.128-0.107,0.213
				c-0.256,0.619-0.299,1.323-0.491,1.984c-0.363,1.216-0.768,2.432-0.896,3.712l-1.6,15.765c0,0,0.021,0.021,0.021,0.043
				l-19.755,197.547c-0.832,8.427,3.371,16.555,10.752,20.715c3.264,1.835,6.869,2.731,10.475,2.731
				c4.523,0,9.024-1.429,12.779-4.267l61.675-46.251l33.323,99.947c2.965,8.939,11.285,14.592,20.224,14.592
				c2.219,0,4.501-0.363,6.741-1.109c11.179-3.733,17.216-15.808,13.483-26.987l-33.301-99.925h77.077
				c8.896,0,16.853-5.504,19.968-13.824C513.78,361.847,511.39,352.461,504.713,346.615z"/>
			<path d="M21.338,76.636c11.797,0,21.333-9.557,21.333-21.333V33.969c0-11.776-9.536-21.333-21.333-21.333
				c-11.797,0-21.333,9.557-21.333,21.333v21.333C0.005,67.078,9.541,76.636,21.338,76.636z"/>
			<path d="M21.338,289.969c11.797,0,21.333-9.557,21.333-21.333v-21.333c0-11.776-9.536-21.333-21.333-21.333
				c-11.797,0-21.333,9.557-21.333,21.333v21.333C0.005,280.412,9.541,289.969,21.338,289.969z"/>
			<path d="M341.338,72.698v21.333c0,11.776,9.536,21.333,21.333,21.333s21.333-9.557,21.333-21.333V72.698
				c0-11.776-9.536-21.333-21.333-21.333S341.338,60.922,341.338,72.698z"/>
			<path d="M307.358,42.667h21.333c11.797,0,21.333-9.557,21.333-21.333S340.489,0,328.692,0h-21.333
				c-11.797,0-21.333,9.557-21.333,21.333S295.561,42.667,307.358,42.667z"/>
			<path d="M21.338,183.302c11.797,0,21.333-9.557,21.333-21.333v-21.333c0-11.776-9.536-21.333-21.333-21.333
				c-11.797,0-21.333,9.557-21.333,21.333v21.333C0.005,173.745,9.541,183.302,21.338,183.302z"/>
			<path d="M243.358,21.333C243.358,9.557,233.822,0,222.025,0h-21.333c-11.797,0-21.333,9.557-21.333,21.333
				s9.536,21.333,21.333,21.333h21.333C233.822,42.667,243.358,33.109,243.358,21.333z"/>
			<path d="M247.318,341.333h-21.333c-11.797,0-21.333,9.557-21.333,21.333S214.187,384,225.984,384h21.333
				c11.797,0,21.333-9.557,21.333-21.333S259.115,341.333,247.318,341.333z"/>
			<path d="M140.651,341.333h-21.333c-11.797,0-21.333,9.557-21.333,21.333S107.52,384,119.318,384h21.333
				c11.797,0,21.333-9.557,21.333-21.333S152.448,341.333,140.651,341.333z"/>
			<path d="M38.942,341.916c-3.861-5.611-10.283-9.28-17.6-9.28c-11.797,0-21.333,9.557-21.333,21.333v8.704
				c0,11.776,9.536,21.333,21.333,21.333h12.651c11.776,0,21.333-9.557,21.333-21.333C55.326,352.582,48.329,344.134,38.942,341.916
				z"/>
			<path d="M136.692,21.333C136.692,9.557,127.156,0,115.358,0H94.025C82.228,0,72.692,9.557,72.692,21.333
				s9.536,21.333,21.333,21.333h21.333C127.156,42.667,136.692,33.109,136.692,21.333z"/>
		</g>
	</g>
</g>
<g>
</g>
<g>
</g>
<g>
</g>
<g>
</g>
<g>
</g>
<g>
</g>
<g>
</g>
<g>
</g>
<g>
</g>
<g>
</g>
<g>
</g>
<g>
</g>
<g>
</g>
<g>
</g>
<g>
</g>
</svg>
